<svg xmlns="http://www.w3.org/2000/svg" height="24" viewBox="0 -960 960 960" width="24" fill="yellow">
  <path d="M184.615-88q-38.34 0-64.478-26.137Q94-140.275 94-178.615v-399.77q0-38.34 26.137-64.478Q146.275-669 184.615-669H374v-138q0-27.571 19.214-46.786Q412.429-873 440-873h80q27.571 0 46.786 19.214Q586-834.571 586-807v138h189.385q38.34 0 64.478 26.137Q866-616.725 866-578.385v399.77q0 38.34-26.137 64.478Q813.725-88 775.385-88h-590.77Zm0-66h590.77q10.769 0 17.692-6.923T800-178.615v-399.77q0-10.769-6.923-17.692T775.385-603H577v30.769q-13 13.077-26.461 19.539-13.462 6.461-30.539 6.461h-80q-17.077 0-30.539-6.961Q396-560.154 382-572.231V-603H184.615q-10.769 0-17.692 6.923T160-578.385v399.77q0 10.769 6.923 17.692T184.615-154Zm55.693-91.077h235.384v-11.692q0-16.88-9.577-30.825-9.576-13.944-24.73-20.406-22.231-9.231-43.462-13.846-21.231-4.616-39.923-4.616t-39.923 4.616q-21.231 4.615-43.462 13.846-15.154 6.462-24.73 20.406-9.577 13.945-9.577 30.825v11.692ZM562-306.615h172V-358H562v51.385ZM358-358q23.615 0 39.654-16.038 16.038-16.039 16.038-39.654 0-23.616-16.038-39.654-16.039-16.039-39.654-16.039-23.615 0-39.654 16.039-16.038 16.038-16.038 39.654 0 23.615 16.038 39.654Q334.385-358 358-358Zm204-50h172v-53.385H562V-408ZM440-612.231h80V-807h-80v194.769ZM480-379Z"/>
</svg>