<svg xmlns="http://www.w3.org/2000/svg" height="24" viewBox="0 -960 960 960" width="24" fill="yellow"><path d="M178.615-128q-38.34 0-64.478-26.137Q88-180.275 88-218.615v-388.77q0-38.34 26.137-64.478Q140.275-698 178.615-698H332v-55.385q0-38.34 26.137-64.478Q384.275-844 422.615-844h114.77q38.34 0 64.478 26.137Q628-791.725 628-753.385V-698h153.385q38.34 0 64.478 26.137Q872-645.725 872-607.385v388.77q0 38.34-26.137 64.478Q819.725-128 781.385-128h-602.77ZM398-698h164v-55.385q0-9.231-7.692-16.923Q546.615-778 537.385-778h-114.77q-9.23 0-16.923 7.692Q398-762.616 398-753.385V-698Zm408 344H587v74H373v-74H154v135.385q0 9.23 7.692 16.923Q169.385-194 178.615-194h602.77q9.23 0 16.923-7.692Q806-209.385 806-218.615V-354Zm-367 8h82v-82h-82v82Zm-285-74h219v-74h214v74h219v-187.385q0-9.23-7.692-16.923Q790.615-632 781.385-632h-602.77q-9.23 0-16.923 7.692Q154-616.615 154-607.385V-420Zm326 33Z"/></svg>